<svg xmlns="http://www.w3.org/2000/svg" width="169" height="169" viewBox="0 0 169 169"><g><g><path fill="#7b6c63" d="M84.5-.005c46.594 0 84.5 37.906 84.5 84.5 0 46.595-37.906 84.501-84.5 84.501S0 131.09 0 84.496C0 37.9 37.906-.004 84.5-.004zm0 164.991c44.382 0 80.49-36.108 80.49-80.49S128.882 4.006 84.5 4.006 4.01 40.114 4.01 84.496s36.108 80.49 80.49 80.49z"/></g><g><g><text dominant-baseline="text-before-edge" style="text-transform:uppercase;line-height:29.99999px" fill="#fff" font-family="'OpenSans','OpenSans'" font-size="16" font-style="none" font-weight="400" transform="translate(70 82)"><tspan style="font-kerning:normal" letter-spacing=".8">8</tspan><tspan style="font-kerning:normal" letter-spacing=".8">5%</tspan></text></g></g><g><path fill="#fff" d="M85 8.994c41.907 0 76 34.094 76 76.001 0 41.907-34.093 76.001-76 76.001s-76-34.094-76-76C9 43.087 43.093 8.993 85 8.993zm0 148.395c39.918 0 72.393-32.475 72.393-72.394 0-39.917-32.475-72.394-72.393-72.394S12.607 45.078 12.607 84.995c0 39.919 32.475 72.394 72.393 72.394z"/></g></g></svg>