<svg xmlns="http://www.w3.org/2000/svg" width="61" height="61" viewBox="0 0 61 61"><defs><clipPath id="lkpwa"><path fill="#fff" d="M30.5 2.999c15.188 0 27.5 12.313 27.5 27.5C58 45.687 45.688 58 30.5 58S3 45.687 3 30.5C3 15.312 15.312 3 30.5 3z"/></clipPath></defs><g><g><g><path fill="#fff" d="M30.5 2.999c15.188 0 27.5 12.313 27.5 27.5C58 45.687 45.688 58 30.5 58S3 45.687 3 30.5C3 15.312 15.312 3 30.5 3z"/><path fill="none" stroke="#fff" stroke-linecap="round" stroke-linejoin="round" stroke-miterlimit="20" stroke-width="6" d="M30.5 2.999c15.188 0 27.5 12.313 27.5 27.5C58 45.687 45.688 58 30.5 58S3 45.687 3 30.5C3 15.312 15.312 3 30.5 3z" clip-path="url(&quot;#lkpwa&quot;)"/></g><g><g><text dominant-baseline="text-before-edge" style="text-transform:uppercase;line-height:29.99999px" fill="#fff" font-family="'FontAwesome','FontAwesome'" font-size="24" font-style="none" font-weight="400" transform="translate(25 19)"><tspan style="font-kerning:normal" letter-spacing="1.2"></tspan></text></g></g></g></g></svg>